<svg width="24" height="24" viewBox="0 0 24 24" fill="none" xmlns="http://www.w3.org/2000/svg">
<path d="M22.5 4.5H19.5V1.5H18V4.5H15V6H18V9H19.5V6H22.5V4.5ZM18 21.4395L13.5188 16.9583C14.5988 15.6071 15.1205 13.8937 14.9766 12.1699C14.8327 10.4461 14.0342 8.84285 12.7451 7.68947C11.456 6.53609 9.77411 5.92015 8.045 5.96816C6.31588 6.01617 4.6708 6.72449 3.44766 7.94763C2.22452 9.17077 1.5162 10.8159 1.46819 12.545C1.42017 14.2741 2.03612 15.9559 3.1895 17.2451C4.34288 18.5342 5.94612 19.3327 7.66991 19.4766C9.39369 19.6205 11.1071 19.0988 12.4583 18.0187L16.9395 22.5L18 21.4395ZM3.00003 12.75C3.00003 11.7116 3.30793 10.6966 3.88481 9.83326C4.46169 8.9699 5.28163 8.29699 6.24094 7.89963C7.20025 7.50227 8.25585 7.3983 9.27425 7.60088C10.2927 7.80345 11.2281 8.30346 11.9623 9.03769C12.6966 9.77192 13.1966 10.7074 13.3992 11.7258C13.6017 12.7442 13.4978 13.7998 13.1004 14.7591C12.703 15.7184 12.0301 16.5383 11.1668 17.1152C10.3034 17.6921 9.28838 18 8.25003 18C6.85825 17.998 5.52404 17.4443 4.53991 16.4601C3.55577 15.476 3.00201 14.1418 3.00003 12.75Z" fill="#0D0D0D"/>
</svg>
