<svg width="22" height="22" viewBox="0 0 22 22" fill="none" xmlns="http://www.w3.org/2000/svg">
<path d="M21.5 3.5H18.5V0.5H17V3.5H14V5H17V8H18.5V5H21.5V3.5ZM17 20.4395L12.5187 15.9583C13.5988 14.6071 14.1205 12.8937 13.9766 11.1699C13.8327 9.4461 13.0342 7.84285 11.7451 6.68947C10.4559 5.53609 8.77408 4.92015 7.04496 4.96816C5.31585 5.01617 3.67077 5.72449 2.44763 6.94763C1.22449 8.17077 0.516168 9.81586 0.468156 11.545C0.420143 13.2741 1.03609 14.9559 2.18947 16.2451C3.34285 17.5342 4.94609 18.3327 6.66988 18.4766C8.39366 18.6205 10.1071 18.0988 11.4582 17.0187L15.9395 21.5L17 20.4395ZM2 11.75C2 10.7116 2.3079 9.69661 2.88478 8.83326C3.46166 7.9699 4.2816 7.29699 5.24091 6.89963C6.20022 6.50227 7.25582 6.3983 8.27422 6.60088C9.29262 6.80345 10.2281 7.30346 10.9623 8.03769C11.6965 8.77192 12.1965 9.70738 12.3991 10.7258C12.6017 11.7442 12.4977 12.7998 12.1004 13.7591C11.703 14.7184 11.0301 15.5383 10.1667 16.1152C9.30338 16.6921 8.28835 17 7.25 17C5.85822 16.998 4.52401 16.4443 3.53988 15.4601C2.55574 14.476 2.00198 13.1418 2 11.75Z" fill="black"/>
</svg>

