<svg width="27" height="27" viewBox="0 0 27 27" fill="none" xmlns="http://www.w3.org/2000/svg">
<path d="M8.75 0H2.1875C1.60734 0 1.05094 0.230468 0.640704 0.640704C0.230468 1.05094 0 1.60734 0 2.1875V8.75C0 9.33016 0.230468 9.88656 0.640704 10.2968C1.05094 10.707 1.60734 10.9375 2.1875 10.9375H8.75C9.33016 10.9375 9.88656 10.707 10.2968 10.2968C10.707 9.88656 10.9375 9.33016 10.9375 8.75V2.1875C10.9375 1.60734 10.707 1.05094 10.2968 0.640704C9.88656 0.230468 9.33016 0 8.75 0ZM8.75 8.75H2.1875V2.1875H8.75V8.75ZM24.0625 0H17.5C16.9198 0 16.3634 0.230468 15.9532 0.640704C15.543 1.05094 15.3125 1.60734 15.3125 2.1875V8.75C15.3125 9.33016 15.543 9.88656 15.9532 10.2968C16.3634 10.707 16.9198 10.9375 17.5 10.9375H24.0625C24.6427 10.9375 25.1991 10.707 25.6093 10.2968C26.0195 9.88656 26.25 9.33016 26.25 8.75V2.1875C26.25 1.60734 26.0195 1.05094 25.6093 0.640704C25.1991 0.230468 24.6427 0 24.0625 0ZM24.0625 8.75H17.5V2.1875H24.0625V8.75ZM8.75 15.3125H2.1875C1.60734 15.3125 1.05094 15.543 0.640704 15.9532C0.230468 16.3634 0 16.9198 0 17.5V24.0625C0 24.6427 0.230468 25.1991 0.640704 25.6093C1.05094 26.0195 1.60734 26.25 2.1875 26.25H8.75C9.33016 26.25 9.88656 26.0195 10.2968 25.6093C10.707 25.1991 10.9375 24.6427 10.9375 24.0625V17.5C10.9375 16.9198 10.707 16.3634 10.2968 15.9532C9.88656 15.543 9.33016 15.3125 8.75 15.3125ZM8.75 24.0625H2.1875V17.5H8.75V24.0625ZM24.0625 15.3125H17.5C16.9198 15.3125 16.3634 15.543 15.9532 15.9532C15.543 16.3634 15.3125 16.9198 15.3125 17.5V24.0625C15.3125 24.6427 15.543 25.1991 15.9532 25.6093C16.3634 26.0195 16.9198 26.25 17.5 26.25H24.0625C24.6427 26.25 25.1991 26.0195 25.6093 25.6093C26.0195 25.1991 26.25 24.6427 26.25 24.0625V17.5C26.25 16.9198 26.0195 16.3634 25.6093 15.9532C25.1991 15.543 24.6427 15.3125 24.0625 15.3125ZM24.0625 24.0625H17.5V17.5H24.0625V24.0625Z" fill="white"/>
</svg>
