<svg width="942" height="631" viewBox="0 0 942 631" fill="none" xmlns="http://www.w3.org/2000/svg">
<ellipse cx="425" cy="380.5" rx="212" ry="34.5" fill="#FF0606"/>
<g clip-path="url(#clip0_108_7320)" filter="url(#filter0_d_108_7320)">
<path fill-rule="evenodd" clip-rule="evenodd" d="M326.077 332.002C343.105 324.444 355.611 304.914 375.908 306.602C393.151 304.954 413.276 306.864 426.718 293.348C437.806 283.797 428.632 262.126 414.281 269.475C408.777 267.658 424.196 265.436 414.833 261.345C410.927 259.53 402.887 257.009 404.59 254.121C399.38 251.64 393.687 252.573 401.109 249.688C410.821 239.743 422.83 253.4 433.778 253.389C440.191 252.723 455.543 265.145 441.198 262.224C437.482 258.977 428.566 260.241 437.289 262.303C443.282 266.068 454.733 270.66 457.071 272.216C451.831 280.149 433.546 261.133 438.875 278.509C443.123 287.974 453.922 291.611 457.948 301.275C453.26 307.349 471.402 311.061 462.389 317.9C466.969 319.551 472.626 321.591 470.501 323.327C479.675 321.92 489.19 325.312 499.351 324.81C513.35 325.356 527.526 326.048 541.249 322.758C554.015 320.968 567.792 321.662 569.794 336.745C584.684 344.538 560.72 346.482 554.056 345.983C549.275 346.001 534.699 346.818 537.436 347.683C543.406 346.102 553.268 350.019 542.15 352.861C535.049 356.162 523.738 352.035 519.104 358.911C528.768 363.076 547.536 361.424 551.543 368.394C541.198 378.829 524.888 369.579 512.087 374.056C499.707 372.728 490.185 381.323 478.896 384.03C465.549 386.331 450.727 379.727 438.622 388.099C427.145 396.844 414.48 391.437 402.607 387.981C386.814 385.483 370.667 383.37 356.205 375.896C341.491 372.012 327.691 387.27 313.177 379.787C300.512 375.542 285.767 380.631 273.976 373.698C264.515 363.506 285.471 371.086 290.301 368.19C298.2 369.231 308.729 359.575 296.106 356.901C290.254 354.552 276.962 347.107 279.698 342.526C292.666 346.582 309.086 350.312 318.101 336.494C320.402 334.44 323.037 332.602 326.077 332.002ZM413.673 255.81C419.254 252.596 423.172 261.989 415.514 256.99L413.673 255.81ZM407.311 252.653C410.18 256.024 411.926 249.924 407.311 252.653V252.653Z" fill="black"/>
</g>
<path d="M313.562 379L317.812 367.719L313.938 357.125H318.219L320 361.875L321.781 357.125H326.062L322.188 367.719L326.438 379H321.906L320 373.781L318.094 379H313.562Z" fill="white"/>
<defs>
<filter id="filter0_d_108_7320" x="-4.00049" y="-7.62939e-06" width="950" height="639" filterUnits="userSpaceOnUse" color-interpolation-filters="sRGB">
<feFlood flood-opacity="0" result="BackgroundImageFix"/>
<feColorMatrix in="SourceAlpha" type="matrix" values="0 0 0 0 0 0 0 0 0 0 0 0 0 0 0 0 0 0 127 0" result="hardAlpha"/>
<feOffset dy="4"/>
<feGaussianBlur stdDeviation="2"/>
<feComposite in2="hardAlpha" operator="out"/>
<feColorMatrix type="matrix" values="0 0 0 0 0 0 0 0 0 0 0 0 0 0 0 0 0 0 0.25 0"/>
<feBlend mode="normal" in2="BackgroundImageFix" result="effect1_dropShadow_108_7320"/>
<feBlend mode="normal" in="SourceGraphic" in2="effect1_dropShadow_108_7320" result="shape"/>
</filter>
<clipPath id="clip0_108_7320">
<rect width="919.247" height="270.164" fill="white" transform="matrix(-0.909289 -0.416165 0.392867 -0.919595 835.861 631)"/>
</clipPath>
</defs>
</svg>
