<?xml version="1.0" encoding="utf-8"?>
<svg xmlns="http://www.w3.org/2000/svg" viewBox="0.0009 1.2071 46.1896 14.4059" width="46.1896mm" height="14.4059mm">
  <g transform="matrix(1, 0, 0, 1, -10.694000562846668, -109.22000447571283)">
    <g transform="matrix(.26458 0 0 .26458 -34.207 65.686)" style="shape-inside:url(#rect827-6-9-2);white-space:pre" aria-label="Korp">
      <path d="m169.71 174.49v37.333h2.9333v-18.773l16.267 18.773h3.7333l-17.227-19.84 16.427-17.493h-3.7333l-15.467 16.64v-16.64z" style="fill: rgb(255, 255, 255);"/>
      <path d="m193.6 199.55c0 7.4133 5.44 12.8 12.587 12.8s12.587-5.3867 12.587-12.8-5.44-12.8-12.587-12.8-12.587 5.3867-12.587 12.8zm2.8267 0c0-5.92 4.2133-10.187 9.76-10.187s9.76 4.2667 9.76 10.187c0 5.92-4.2133 10.187-9.76 10.187s-9.76-4.2667-9.76-10.187z" style="fill: rgb(255, 255, 255);"/>
      <path d="m227.84 187.29h-2.7733v24.533h2.7733v-14.933c0-4.16 1.3333-7.52 4.96-7.52 1.28 0 2.1333 0.37333 3.2 1.1733l1.5467-2.2933c-1.12-1.0667-2.56-1.4933-4.1067-1.4933-2.3467 0-4.3733 1.6-5.6 4.1067z" style="fill: rgb(255, 255, 255);"/>
      <path d="m244.75 223.55v-17.493c1.6533 3.84 4.9067 6.2933 9.12 6.2933 6.56 0 11.84-4.9067 11.84-12.8s-5.28-12.8-11.84-12.8c-4.2133 0-7.4667 2.4533-9.12 6.2933v-5.76h-2.7733v36.267zm18.187-24c0 6.4-4.2133 10.187-9.44 10.187-4.5333 0-8.7467-4.32-8.7467-10.187 0-5.8667 4.2133-10.187 8.7467-10.187 5.2267 0 9.44 3.7867 9.44 10.187z" style="fill: rgb(255, 255, 255);"/>
    </g>
    <g transform="matrix(0.085621, 0, 0, 0.085621, -725.421509, -34.504623)" fill="#f0581a" style="transform-origin: 774.404px 150.523px 0px;">
      <g fill="#f0581a" style="" transform="matrix(-0.788123, 0, 0, 0.788123, 1370.658691, 43.561821)">
        <path class="st1" d="M 863.2 124.7 C 851.568 137.202 848.06 157.769 830.343 163.96 C 816.402 171.728 798.75 177.675 792.287 193.692 C 786.38 205.603 801.917 219.832 811.367 208.498 C 816.661 207.927 804.463 215.483 813.83 215.325 C 817.776 215.347 825.461 214.403 825.066 217.39 C 830.351 217.469 834.813 214.587 829.596 219.703 C 824.991 231.422 809.95 224.776 800.725 228.866 C 795.559 231.798 778.146 227.404 791.289 224.437 C 795.59 225.696 802.651 221.343 794.556 222.915 C 788.148 222.083 776.843 222.611 774.311 222.215 C 775.87 213.801 798.132 222.473 787.382 210.309 C 780.393 204.183 769.981 205.247 763.107 198.877 C 764.871 192.183 748.242 195.922 753.376 186.993 C 748.921 187.355 743.418 187.803 744.583 185.596 C 737.357 190.162 728.115 190.946 719.731 195.142 C 707.734 199.915 695.535 204.636 685.152 212.43 C 675.036 218.647 663.173 223.216 656.054 211.679 C 640.696 210.882 660.196 200.367 665.994 198.289 C 670.017 196.492 682.01 190.394 679.392 190.71 C 674.928 194.223 665.205 194.709 673.553 188.25 C 678.35 182.915 689.37 182.061 690.8 174.733 C 681.155 174.944 665.929 183.284 660.041 179.102 C 665.003 166.748 682.083 168.201 691.261 159.784 C 702.175 156.25 707.107 145.702 715.647 139.29 C 726.069 132.44 740.941 132.294 748.13 120.965 C 754.656 109.565 767.279 109.248 778.53 107.637 C 792.742 103.784 807.114 99.487 821.996 100.183 C 835.797 97.862 841.935 80.292 856.864 80.976 C 869.069 79.713 879.664 70.072 892.1 71.324 C 903.746 76.098 883.351 77.736 880.323 81.895 C 873.29 83.992 867.892 95.78 879.495 93.252 C 885.274 92.984 899.159 94.093 898.503 98.843 C 886.111 100.374 870.927 103.456 868.304 118.07 C 867.104 120.6 865.545 123.079 863.199 124.7 L 863.2 124.7 Z M 816.8 219.4 C 813.253 224.098 806.568 217.909 814.823 219.125 L 816.8 219.4 Z M 823.3 219.6 C 819.668 217.924 820.392 223.542 823.3 219.6 Z" clip-rule="evenodd" fill="#f0581a" fill-rule="evenodd" style="transform-origin: 774.404px 150.523px 0px;" transform="matrix(0.987811, 0.155658, -0.155658, 0.987811, 0, 0)"/>
      </g>
    </g>
  </g>
  <path d="M 27.121 6.014 L 26.388 6.014 L 26.388 12.505 L 27.121 12.505 L 27.121 6.014 Z" style="fill: rgb(240, 88, 26);" transform="matrix(1, 0, 0, 1, 3.552713678800501e-15, -1.7763568394002505e-15)"/>
  <circle style="stroke: rgb(0, 0, 0); paint-order: fill; fill: rgb(240, 88, 26); stroke-width: 0px;" cx="26.788" cy="4.855" r="0.759" transform="matrix(1, 0, 0, 1, 3.552713678800501e-15, -1.7763568394002505e-15)"/>
</svg>