<svg width="186" height="59" viewBox="0 0 186 59" fill="none" xmlns="http://www.w3.org/2000/svg">
<path d="M0 9.93066V47.264H2.93333V28.4906L19.2 47.264H22.9333L5.70668 27.424L22.1333 9.93066H18.4L2.93333 26.5706V9.93066H0Z" fill="white"/>
<path d="M23.8932 34.9973C23.8932 42.4106 29.3333 47.7973 36.4799 47.7973C43.6266 47.7973 49.0666 42.4106 49.0666 34.9973C49.0666 27.5839 43.6266 22.1973 36.4799 22.1973C29.3333 22.1973 23.8932 27.5839 23.8932 34.9973ZM26.7199 34.9973C26.7199 29.0773 30.9333 24.8106 36.4799 24.8106C42.0266 24.8106 46.2399 29.0773 46.2399 34.9973C46.2399 40.9173 42.0266 45.1839 36.4799 45.1839C30.9333 45.1839 26.7199 40.9173 26.7199 34.9973Z" fill="white"/>
<path d="M58.1332 22.7306H55.3599V47.2639H58.1332V32.3306C58.1332 28.1706 59.4665 24.8106 63.0932 24.8106C64.3732 24.8106 65.2265 25.1839 66.2932 25.9839L67.8399 23.6906C66.7199 22.6239 65.2799 22.1973 63.7332 22.1973C61.3865 22.1973 59.3599 23.7973 58.1332 26.3039V22.7306Z" fill="white"/>
<path d="M75.0399 58.9973V41.5039C76.6933 45.3439 79.9466 47.7973 84.1599 47.7973C90.7199 47.7973 95.9999 42.8906 95.9999 34.9973C95.9999 27.1039 90.7199 22.1973 84.1599 22.1973C79.9466 22.1973 76.6933 24.6506 75.0399 28.4906V22.7306H72.2666V58.9973H75.0399ZM93.2266 34.9973C93.2266 41.3973 89.0133 45.1839 83.7866 45.1839C79.2533 45.1839 75.0399 40.8639 75.0399 34.9973C75.0399 29.1306 79.2533 24.8106 83.7866 24.8106C89.0133 24.8106 93.2266 28.5973 93.2266 34.9973Z" fill="white"/>
<path fill-rule="evenodd" clip-rule="evenodd" d="M173.901 17.3091C170.137 21.3549 169.001 28.0104 163.268 30.0137C158.757 32.5276 153.044 34.452 150.953 39.6353C149.041 43.4897 154.069 48.0944 157.127 44.4266C158.84 44.2417 154.893 46.687 157.924 46.6359C159.201 46.643 161.688 46.3376 161.56 47.3042C163.27 47.3297 164.715 46.3969 163.026 48.0526C161.536 51.845 156.669 49.6943 153.684 51.0178C152.012 51.9667 146.377 50.5447 150.63 49.5845C152.022 49.9919 154.307 48.5833 151.687 49.0919C149.614 48.8227 145.955 48.9937 145.136 48.8655C145.641 46.1428 152.844 48.9488 149.366 45.0125C147.104 43.0301 143.735 43.3744 141.51 41.3131C142.081 39.1468 136.7 40.3569 138.362 37.4674C136.92 37.5847 135.139 37.7295 135.516 37.0155C133.178 38.4929 130.187 38.7468 127.474 40.1047C123.592 41.6491 119.644 43.1768 116.284 45.699C113.011 47.7107 109.172 49.1895 106.868 45.456C101.898 45.1981 108.208 41.7953 110.084 41.123C111.386 40.5415 115.267 38.568 114.42 38.6702C112.976 39.8069 109.829 39.9644 112.53 37.8742C114.083 36.1477 117.649 35.8713 118.112 33.5C114.99 33.5682 110.063 36.2671 108.158 34.9137C109.764 30.9159 115.291 31.3862 118.261 28.6624C121.793 27.519 123.389 24.1055 126.152 22.0304C129.525 19.814 134.338 19.7666 136.664 16.1004C138.776 12.4112 142.861 12.3087 146.502 11.7872C151.101 10.5407 155.752 9.14987 160.568 9.37534C165.034 8.62422 167.02 2.93838 171.851 3.15981C175.801 2.75088 179.229 -0.368748 183.254 0.0361719C187.022 1.58109 180.422 2.11115 179.442 3.45688C177.167 4.13542 175.42 7.9501 179.175 7.13216C181.045 7.04548 185.538 7.40431 185.326 8.94138C181.316 9.43682 176.402 10.4345 175.553 15.1634C175.165 15.9822 174.66 16.7845 173.901 17.3091ZM158.886 47.9545C157.738 49.4748 155.574 47.4721 158.246 47.8657L158.886 47.9545ZM160.989 48.0193C159.814 47.477 160.048 49.2951 160.989 48.0193V48.0193Z" fill="#F0581A"/>
</svg>
